<svg width="360" height="640" viewBox="0 0 360 640" fill="none" xmlns="http://www.w3.org/2000/svg">
	<rect width="360" height="640" fill="#35916A"/>
	<path d="M207.25 294.459L207.334 294.366" stroke="#1E1E1E" stroke-width="16" stroke-linecap="round" stroke-linejoin="round"/>
	<path d="M157 286.084L157.084 285.991" stroke="#1E1E1E" stroke-width="16" stroke-linecap="round" stroke-linejoin="round"/>
	<path d="M157 336.334L157.084 336.241" stroke="#1E1E1E" stroke-width="16" stroke-linecap="round" stroke-linejoin="round"/>
	<path d="M140.25 378.125L108.729 244.159C107.846 240.408 111.341 237.1 115.038 238.188L249.125 277.625" stroke="#1E1E1E" stroke-width="4"/>
	<path d="M275.908 289.557C277.871 281.704 273.097 273.747 265.244 271.783C257.391 269.82 249.434 274.595 247.471 282.447C244.189 295.574 231.55 316.352 212.068 335.834C192.797 355.105 168.952 370.958 145.331 376.409C137.444 378.229 132.526 386.098 134.346 393.985C136.166 401.872 144.035 406.79 151.922 404.97C182.74 397.859 211.238 378.117 232.795 356.561C254.141 335.215 270.815 309.93 275.908 289.557Z" stroke="#1E1E1E" stroke-width="4" stroke-linecap="round"/>
</svg>
